<svg
   xmlns:dc="http://purl.org/dc/elements/1.1/"
   xmlns:cc="http://creativecommons.org/ns#"
   xmlns:rdf="http://www.w3.org/1999/02/22-rdf-syntax-ns#"
   xmlns:svg="http://www.w3.org/2000/svg"
   xmlns="http://www.w3.org/2000/svg"
   xmlns:xlink="http://www.w3.org/1999/xlink"
   version="1.1"
   width="200"
   height="200"
   id="svg3231">
  <defs
     id="defs3233">
    <linearGradient
       x1="18.57823"
       y1="124.70581"
       x2="145.73055"
       y2="123.33657"
       id="linearGradient3068"
       xlink:href="#SVGID_1_-9-8"
       gradientUnits="userSpaceOnUse" />
    <linearGradient
       x1="18.57823"
       y1="124.70581"
       x2="145.73055"
       y2="123.33657"
       id="SVGID_1_-9-8"
       gradientUnits="userSpaceOnUse">
      <stop
         id="stop4-4-8"
         style="stop-color:#1c75bc;stop-opacity:1"
         offset="0" />
      <stop
         id="stop6-8-2"
         style="stop-color:#187cc2;stop-opacity:1"
         offset="0.16310769" />
      <stop
         id="stop8-8-4"
         style="stop-color:#0f90d4;stop-opacity:1"
         offset="0.72147" />
      <stop
         id="stop10-2-5"
         style="stop-color:#00aeef;stop-opacity:1"
         offset="1" />
    </linearGradient>
    <linearGradient
       x1="18.57823"
       y1="124.70581"
       x2="145.73055"
       y2="123.33657"
       id="linearGradient3261"
       xlink:href="#SVGID_1_-9-8"
       gradientUnits="userSpaceOnUse" />
  </defs>
  <metadata
     id="metadata3236">
    <rdf:RDF>
      <cc:Work
         rdf:about="">
        <dc:format>image/svg+xml</dc:format>
        <dc:type
           rdf:resource="http://purl.org/dc/dcmitype/StillImage" />
        <dc:title></dc:title>
      </cc:Work>
    </rdf:RDF>
  </metadata>
  <g
     transform="translate(0,-852.36218)"
     id="layer1">
    <circle
       cx="80.785004"
       cy="80.206001"
       r="77.953003"
       transform="matrix(1.2324276,0,0,1.2324276,0.79546729,854.5855)"
       id="circle12-4-5"
       style="fill:url(#linearGradient3261)" />
    <g
       transform="matrix(1.478202,0,0,1.478202,-15.953991,852.55202)"
       id="g14-1-17"
       style="fill:#fefefe;fill-opacity:1">
      <path
         d="m 88.098,28.714 -3.94,15.719 c 0,0 5.339,-6.496 15.928,-6.914 l 4.151,-16.402 -16.139,7.597 z"
         id="path16-7-1"
         style="opacity:0.25;fill:#fefefe;fill-opacity:1" />
      <path
         d="m 87.932,28.466 -3.94,15.719 c 0,0 5.339,-6.496 15.928,-6.914 l 4.151,-16.402 -16.139,7.597 z"
         id="path18-4-1"
         style="fill:#fefefe;fill-opacity:1" />
      <path
         d="m 34.007,54.179 15.841,-7.455 c 0,0 -18.049,42.74 1.274,45.326 20.255,2.711 20.335,-41.653 44.015,-48.224 26.527,-7.36 37.353,14.228 36.985,25.251 -0.663,19.913 -12.162,27.638 -16.081,30.106 -21.392,13.467 -37.106,-2.47 -37.106,-2.47 0,0 4.438,-6.024 6.528,-11.054 1.847,2.402 6.232,6.623 14.909,6.623 19.414,0 26.7,-35.08 5.167,-36.991 C 91.563,54.051 85.775,72.015 83.288,76.818 78.49,86.085 72.272,106.009 47.872,103.942 17.271,101.352 34.007,54.179 34.007,54.179 z"
         id="path20-0-5"
         style="opacity:0.25;fill:#fefefe;fill-opacity:1" />
      <path
         d="m 34.007,53.846 15.841,-7.455 c 0,0 -18.049,42.74 1.274,45.326 20.255,2.711 20.335,-41.653 44.015,-48.224 26.527,-7.36 37.353,14.228 36.985,25.251 -0.663,19.913 -12.162,27.638 -16.081,30.106 -21.392,13.467 -37.106,-2.47 -37.106,-2.47 0,0 4.438,-6.024 6.528,-11.054 1.847,2.402 6.232,6.623 14.909,6.623 19.414,0 26.7,-35.08 5.167,-36.991 C 91.563,53.718 85.775,71.682 83.288,76.485 78.49,85.752 72.272,105.676 47.872,103.609 17.271,101.019 34.007,53.846 34.007,53.846 z"
         id="path22-9-2"
         style="fill:#fefefe;fill-opacity:1" />
    </g>
  </g>
</svg>
